<svg width="100%"
    height="100%" viewBox="0 0 41 36" version="1.1" xmlns="http://www.w3.org/2000/svg"
    xmlns:xlink="http://www.w3.org/1999/xlink" xml:space="preserve" xmlns:serif="http://www.serif.com/"
    style="fill-rule:evenodd;clip-rule:evenodd;stroke-linejoin:round;stroke-miterlimit:2;">
    <g>
        <path rendering="geometricPrecision" d="M19.164,9.238l1.82,0l0,-7.748l3.3,-0l0,-1.49l-8.42,0l0,1.49l3.3,-0l0,7.748Z"
            style="fill:#fff;fill-rule:nonzero;" />
        <path
            rendering="geometricPrecision"
            d="M14.287,22.438l1.82,0l-0,-9.238l-1.82,0l-0,3.696l-3.698,0l0,-3.696l-1.82,0l0,9.238l1.82,0l0,-4.052l3.698,-0l-0,4.052Z"
            style="fill:#fff;fill-rule:nonzero;" />
        <path
            rendering="geometricPrecision"
            d="M24.754,22.438l1.82,0l0,-3.537l1.348,-0c1.59,-0 1.657,0.462 1.736,1.518l0.145,2.019l1.847,0l-0.145,-1.848c-0.145,-1.926 -0.488,-2.321 -2.125,-2.387c1.076,-0.145 2.118,-0.647 2.118,-2.153c0,-1.848 -1.464,-2.85 -3.576,-2.85l-3.168,0l0,9.238Zm1.82,-5.027l0,-2.721l1.348,-0c1.056,-0 1.756,0.436 1.756,1.36c0,0.925 -0.7,1.361 -1.756,1.361l-1.348,-0Z"
            style="fill:#fff;fill-rule:nonzero;" />
        <path
            rendering="geometricPrecision"
            d="M4.67,35.85c2.641,-0 4.645,-1.794 4.645,-4.831c0,-3.037 -2.004,-4.83 -4.645,-4.83c-2.641,-0 -4.646,1.793 -4.646,4.83c0,3.037 2.005,4.831 4.646,4.831Zm-2.826,-4.831c0,-1.98 1.109,-3.34 2.826,-3.34c1.716,-0 2.825,1.36 2.825,3.34c0,1.981 -1.109,3.341 -2.825,3.341c-1.717,-0 -2.826,-1.36 -2.826,-3.341Z"
            style="fill:#fff;fill-rule:nonzero;" />
        <path
            rendering="geometricPrecision"
            d="M23.401,35.638l1.966,0l-0,-9.238l-1.834,0l0,6.454l-4.067,-6.454l-1.965,0l0,9.238l1.833,0l0,-6.453l4.067,6.453Z"
            style="fill:#fff;fill-rule:nonzero;" />
        <path
            rendering="geometricPrecision"
            d="M34.014,35.638l6.176,0l0,-1.49l-4.356,0l0,-2.562l3.564,-0l0,-1.49l-3.564,0l0,-2.206l4.356,-0l0,-1.49l-6.176,0l0,9.238Z"
            style="fill:#fff;fill-rule:nonzero;" />
    </g>
</svg>