<svg width="82" height="118" viewBox="0 0 82 118" fill="none" xmlns="http://www.w3.org/2000/svg">
<path d="M56.3982 0.379883C50.647 0.379883 45.2231 4.67475 40.886 12.5786C36.6545 4.91746 31.3043 0.379883 25.4055 0.379883C11.3495 0.379883 0.343262 26.0858 0.343262 58.9041C0.343262 91.7223 11.3495 117.428 25.4055 117.428C31.3043 117.428 36.6545 112.891 40.886 105.23C45.2231 113.123 50.6576 117.428 56.3982 117.428C70.4541 117.428 81.4603 91.7223 81.4603 58.9041C81.4603 26.0858 70.4541 0.379883 56.3982 0.379883ZM26.3868 74.6273C23.6643 91.0576 26.2497 105.166 32.1485 106.137C33.5731 106.369 35.0715 105.81 36.5489 104.607C33.1404 110.221 29.2255 113.334 25.4055 113.334C15.2751 113.334 4.42708 91.4585 4.42708 58.9041C4.42708 26.3496 15.2751 4.47426 25.4055 4.47426C34.6178 4.47426 44.4211 22.5613 46.12 50.3144C45.0331 48.225 43.6402 46.927 41.994 46.6526C36.0952 45.6712 29.0988 58.1971 26.3868 74.6273ZM72.5752 51.7072C66.6763 50.7259 59.68 63.2517 56.968 79.6819C54.3405 95.5635 56.662 109.282 62.1598 111.055C60.2709 112.542 58.3293 113.334 56.4087 113.334C51.734 113.334 47.0698 108.902 43.2603 100.871L43.1548 100.576C47.6923 90.0339 50.4782 75.3765 50.4782 58.9041C50.4782 42.4316 47.6923 27.7214 43.1442 17.1795C46.9748 8.98019 51.6601 4.4637 56.4087 4.4637C66.3175 4.4637 76.9123 25.4104 77.366 56.8147C76.2053 53.8811 74.5907 52.0344 72.5857 51.7072H72.5752Z" fill="black"/>
</svg>
