<svg width="67" height="127" viewBox="0 0 67 127" fill="none" xmlns="http://www.w3.org/2000/svg">
<path d="M13.4106 59.7075C9.37575 61.7181 4.84184 63.0426 0 63.5C4.84184 63.9669 9.36513 65.2819 13.4106 67.2925C18.0295 69.5889 19.0276 75.1823 15.4918 78.7175L6.17972 88.0272L15.8103 80.2612C20.0469 76.8499 26.7894 78.1934 28.9661 82.9102C30.4845 86.1976 31.4189 89.771 31.6206 93.4967L33.5 127L35.3794 93.4967C35.5917 89.7614 36.5155 86.1976 38.0339 82.9102C40.2212 78.1934 46.9531 76.8403 51.1897 80.2612L60.8203 88.0272L51.5082 78.7175C47.9724 75.1919 48.9705 69.5889 53.5894 67.2925C57.6242 65.2819 62.1582 63.9574 67 63.5C62.1582 63.0331 57.6349 61.7181 53.5894 59.7075C48.9599 57.4111 47.9724 51.8177 51.5082 48.2825L60.8203 38.9729L51.1897 46.7388C46.9531 50.1502 40.2106 48.8066 38.0339 44.0898C36.5155 40.8024 35.5811 37.2291 35.3794 33.5033L33.5 0L31.6206 33.5033C31.4083 37.2386 30.4845 40.8024 28.9661 44.0898C26.7788 48.8066 20.0363 50.1502 15.8103 46.7388L6.17972 38.9729L15.4918 48.2825C19.0276 51.8082 18.0295 57.4111 13.4106 59.7075Z" fill="black"/>
</svg>
