<?xml version="1.0" encoding="UTF-8" standalone="no"?>
<!-- Created with Inkscape (http://www.inkscape.org/) -->

<svg
   viewBox="0 0 110.56801 106.8732"
   version="1.1"
   xmlns="http://www.w3.org/2000/svg"
   xmlns:svg="http://www.w3.org/2000/svg">
   <g>
   <path
       style="fill:#ffffff;stroke-width:0.264583"
       d="m 283.74726,162.53551 c 2.66578,-0.93268 4.49591,-2.92913 5.29219,-5.77318 l 0.31482,-1.12443 1.89356,-0.31255 c 2.80199,-0.46248 6.19454,-1.68224 10.0249,-3.60433 1.87289,-0.93983 3.53087,-1.70878 3.6844,-1.70878 0.15353,0 2.72429,1.14356 5.7128,2.54125 8.6683,4.05403 12.71478,5.42156 17.63807,5.96085 5.98766,0.65589 11.48149,-1.05147 14.92613,-4.63871 5.10995,-5.32149 5.2498,-13.90683 0.31425,-19.2914 -2.61332,-2.85106 -6.85201,-5.3402 -12.29612,-7.22079 -1.55092,-0.53575 -2.72361,-1.05593 -2.60599,-1.15597 0.11763,-0.10004 2.65465,-1.04596 5.63783,-2.10205 8.47543,-3.00042 11.91075,-4.80085 14.93967,-7.82977 2.81948,-2.81947 4.11033,-6.14917 4.11033,-10.6024 0,-8.833314 -5.37915,-14.706654 -15.00687,-16.385584 -5.45629,-0.9515 -12.23756,-0.0294 -17.76679,2.4159 -0.78289,0.34623 -1.52228,0.62951 -1.64308,0.62951 -0.1208,0 0.55146,-1.33945 1.49392,-2.97656 5.15982,-8.96291 6.46449,-12.599619 6.46449,-18.019524 0,-4.655008 -1.17836,-7.644847 -4.19678,-10.648455 -2.91266,-2.898376 -7.09106,-4.603377 -11.28135,-4.603377 -4.72097,0 -8.67371,1.919761 -13.0745,6.35 -4.8501,4.882552 -9.44097,12.756517 -14.03695,24.075236 -1.92003,4.72855 -2.39803,5.55809 -3.20271,5.55809 -1.45907,0 -1.91771,-0.8371 -2.7783,-5.07104 -0.76743,-3.77557 -1.75735,-6.27293 -3.59773,-9.076282 -4.36295,-6.645886 -10.43631,-10.207826 -17.37423,-10.189745 -4.29102,0.01119 -7.47317,1.351786 -10.29827,4.338535 -2.12993,2.251797 -3.07055,3.911949 -3.7733,6.659687 -0.65996,2.580395 -0.66058,4.251105 -0.003,6.823955 0.71136,2.78138 2.1364,5.38289 5.59772,10.21906 3.41458,4.770874 4.85729,7.558274 5.26349,10.169354 0.33782,2.17159 0.19216,3.63228 -0.81246,8.14719 -0.76431,3.43493 -1.25961,6.55043 -1.37628,8.65702 -0.0626,1.13124 -0.15125,1.24663 -2.29406,2.98762 -2.6054,2.11683 -3.33464,3.02441 -3.86492,4.81004 -1.14728,3.86331 0.43572,9.30048 4.15289,14.26403 6.0979,8.14256 16.83354,15.50204 25.75343,17.65445 2.61455,0.6309 6.37668,0.66501 8.06836,0.0731 z m -7.27462,-4.5705 c -9.43835,-2.27499 -22.31645,-12.49412 -25.45135,-20.19637 -2.00939,-4.93692 -0.26478,-8.71857 4.54927,-9.86108 0.89812,-0.21315 1.29241,-0.43155 1.22791,-0.68016 -0.90966,-3.50623 -0.61682,-6.56463 1.1696,-12.21524 1.41774,-4.48445 1.66274,-6.63892 1.07459,-9.44992 -0.59035,-2.82154 -2.06991,-5.54746 -5.888,-10.847914 -1.83441,-2.54662 -3.73415,-5.46365 -4.22165,-6.48229 -3.39682,-7.09779 -1.49098,-13.30641 4.64798,-15.141611 1.70984,-0.511143 5.5585,-0.556567 7.54582,-0.08906 7.92084,1.863349 12.90278,9.814401 14.29115,22.808301 l 0.15944,1.49221 1.37366,-0.35293 c 0.75552,-0.19412 3.14588,-0.47486 5.31191,-0.62387 2.16604,-0.14901 3.96449,-0.3045 3.99657,-0.34553 0.0321,-0.041 0.4868,-1.58586 1.0105,-3.43297 1.95531,-6.89642 5.92974,-15.692306 9.50964,-21.045933 3.36809,-5.036873 8.10586,-9.339744 11.62228,-10.55542 4.15717,-1.437192 9.15038,0.245367 11.69573,3.941104 2.76714,4.017759 3.00261,8.980093 0.70841,14.929139 -1.96081,5.08457 -5.19704,9.41936 -14.14178,18.9423 -1.61047,1.714574 -3.03294,3.304694 -3.16104,3.533604 -0.17466,0.3121 0.0861,0.74014 1.04265,1.71125 0.70156,0.71227 1.45864,1.29406 1.68239,1.29285 0.22375,-10e-4 1.65698,-0.8997 3.18495,-1.99666 11.63017,-8.349554 21.36678,-11.508254 29.22501,-9.481054 3.91756,1.01061 7.98269,4.14942 9.55654,7.378864 0.70523,1.44711 0.77365,1.83318 0.77365,4.36562 0,2.49105 -0.0744,2.9285 -0.72025,4.23334 -2.12622,4.2958 -6.3853,7.31102 -13.56725,9.60495 -3.56877,1.13988 -6.28056,1.73039 -14.18499,3.08889 -3.37341,0.57978 -6.20526,1.12564 -6.29299,1.21304 -0.0877,0.0874 -0.15952,1.1858 -0.15952,2.4409 v 2.28199 l 0.79375,0.18824 c 0.43657,0.10353 2.13456,0.31999 3.77332,0.48103 10.23494,1.00576 18.61258,4.33331 21.71985,8.62702 1.32878,1.83615 1.75995,3.39798 1.74958,6.33748 -0.007,2.10833 -0.13017,2.94937 -0.60413,4.13996 -1.57423,3.95443 -5.62247,6.31793 -10.80181,6.30649 -4.6368,-0.0102 -8.61457,-1.37474 -18.26691,-6.26608 l -7.45719,-3.77895 -2.2001,1.36725 c -5.43444,3.3772 -10.00312,4.92297 -16.68604,5.64554 l -1.52136,0.16449 -0.004,2.29607 c -0.005,2.88007 -0.13973,3.37603 -1.01377,3.71892 -2.3932,0.93886 -4.133,1.01588 -7.05241,0.3122 z m 12.1968,-22.63336 c 0.88741,-0.19307 2.20466,-0.65061 2.9272,-1.01675 1.38876,-0.70373 3.26452,-2.55457 3.26452,-3.22113 0,-0.61863 -2.82158,-0.51859 -4.68642,0.16616 -1.37461,0.50474 -4.67657,2.52044 -6.42608,3.92283 l -0.66145,0.53022 1.98437,-0.0152 c 1.09141,-0.008 2.71044,-0.17312 3.59786,-0.36618 z m -5.86975,-7.7317 c 3.44869,-1.7809 5.99745,-4.02543 7.25919,-6.39269 0.45844,-0.86014 0.83353,-1.65166 0.83353,-1.75894 0,-0.37943 -2.58417,0.0598 -3.79206,0.64452 -1.92738,0.93303 -3.7609,2.77956 -5.749,5.78979 -1.77803,2.69215 -2.05586,3.23812 -1.63758,3.21797 0.10914,-0.005 1.49781,-0.68054 3.08592,-1.50065 z m -8.67729,-4.52305 c 1.55914,-1.23599 3.01373,-2.82179 3.95277,-4.30932 1.23366,-1.95426 2.17693,-4.98093 1.99614,-6.40502 -0.0484,-0.38153 -2.3279,1.36179 -3.45533,2.64262 -0.60751,0.69016 -1.50393,2.0923 -1.99206,3.11585 -0.92974,1.94957 -2.13895,5.63446 -1.92062,5.85279 0.07,0.07 0.70856,-0.33364 1.4191,-0.89692 z"
       id="path179" /></g></svg>
